<?xml version="1.0" encoding="utf-8"?>
<svg xmlns="http://www.w3.org/2000/svg" viewBox="0 0 100 100" width="64" height="64">
  <path d="M50 12C30.129562 12 14 28.129562 14 48C14 55.711194 16.433226 62.858973 20.566406 68.716797 A 1.0001 1.0001 0 1 0 22.201172 67.564453C18.296352 62.030277 16 55.290806 16 48C16 29.210438 31.210438 14 50 14C68.789562 14 84 29.210438 84 48C84 61.359008 76.289435 72.879987 65.091797 78.441406 A 1.0005593 1.0005593 0 1 0 65.980469 80.234375C77.836831 74.345794 86 62.128992 86 48C86 28.129562 69.870438 12 50 12 z M 38.5 20C37.375 20 36.468589 20.439878 35.876953 21.105469C35.285317 21.77106 35 22.638889 35 23.5C35 24.361111 35.285317 25.22894 35.876953 25.894531C36.468589 26.560122 37.375 27 38.5 27C39.625 27 40.531411 26.560122 41.123047 25.894531C41.714683 25.22894 42 24.361111 42 23.5C42 22.638889 41.714683 21.77106 41.123047 21.105469C40.531411 20.439878 39.625 20 38.5 20 z M 38.5 21C39.375 21 39.96859 21.310122 40.376953 21.769531C40.785317 22.22894 41 22.861111 41 23.5C41 24.138889 40.785317 24.77106 40.376953 25.230469C39.96859 25.689878 39.375 26 38.5 26C37.625 26 37.03141 25.689878 36.623047 25.230469C36.214683 24.77106 36 24.138889 36 23.5C36 22.861111 36.214683 22.22894 36.623047 21.769531C37.03141 21.310122 37.625 21 38.5 21 z M 67 27C66.416667 27 65.976576 27.262489 65.640625 27.53125C65.304674 27.800011 65.043719 28.107724 64.824219 28.400391C64.516785 28.810302 64.430359 29.003407 64.320312 29.207031C64.024316 29.31586 61.685877 30.163897 58.802734 31.605469C56.105501 32.954085 53.251637 34.60403 51.724609 36.707031C51.60486 36.645491 51.637869 36.628971 51.496094 36.572266C50.743028 36.271039 49.611111 36 48 36C40.520979 36 36.182504 42.776247 35.433594 44.035156C29.597928 44.133226 25.54956 45.604639 22.986328 47.142578C20.335006 48.733371 19.167969 50.445313 19.167969 50.445312 A 1.0001 1.0001 0 0 0 20 52C26.044887 52 28.397656 55.184734 28.470703 56.90625C25.973144 62.707921 24.111645 68.97117 22.878906 74.396484C21.62501 79.914916 21 84.507804 21 87 A 1.0001 1.0001 0 1 0 23 87C23 84.859196 23.596522 80.258209 24.828125 74.837891C25.23694 73.038683 25.741317 71.128171 26.289062 69.189453C26.405829 73.992617 27.007813 77.583984 27.007812 77.583984 A 0.50005 0.50005 0 0 0 27.900391 77.800781L33.138672 70.816406C33.520243 76.351895 36.037109 82.6875 36.037109 82.6875 A 0.50005 0.50005 0 0 0 36.900391 82.800781L42.195312 75.740234C42.731234 80.932887 46.130859 84.835937 46.130859 84.835938 A 0.50005 0.50005 0 0 0 46.884766 84.820312L48.884766 82.419922 A 0.50064456 0.50064456 0 1 0 48.115234 81.779297L46.535156 83.675781C45.976484 83.018853 43 79.402858 43 74.5 A 0.50005 0.50005 0 0 0 42.099609 74.199219L36.667969 81.441406C36.189261 80.199823 34 74.38589 34 69.5 A 0.50005 0.50005 0 0 0 33.099609 69.199219L27.845703 76.203125C27.642604 74.855513 27.107931 70.951913 27.275391 65.845703C28.091554 63.280824 29.027991 60.699989 30.080078 58.205078C30.807009 58.995773 31.841274 59.5 33 59.5C35.203219 59.5 37 57.703219 37 55.5C37 53.488095 35.451747 51.859942 33.427734 50.75C31.403722 49.640058 28.842593 49 26.5 49C25.307191 49 24.254841 49.132144 23.345703 49.316406C23.556089 49.165494 23.74035 49.021415 24.013672 48.857422C26.36235 47.448215 30.166667 46 36 46 A 1.0001 1.0001 0 0 0 36.871094 45.490234C36.871094 45.490234 41.211111 38 48 38C49.388889 38 50.256972 38.228961 50.753906 38.427734C51.25084 38.626508 51.292969 38.707031 51.292969 38.707031 A 1.0001 1.0001 0 0 0 52.894531 38.447266C53.626203 36.983922 56.756894 34.864717 59.697266 33.394531C62.391934 32.047197 64.656315 31.200382 65.054688 31.052734C65.108171 31.372992 65.213879 31.794951 65.427734 32.222656C65.827406 33.021998 66.688487 33.845915 68.119141 33.974609 A 1.0001 1.0001 0 0 0 68.21875 34.125C68.21875 34.125 70 36.533333 70 38.5C70 38.850667 69.754339 39.30622 69.25 39.800781C68.745661 40.295343 68.046361 40.769607 67.447266 41.166016C64.57668 43.065735 63.015803 44.341425 62.099609 45.462891C61.183415 46.584356 61 47.676889 61 48.5C61 49.094066 61.155296 49.851147 61.681641 50.599609C62.207986 51.348072 63.205667 52 64.5 52C66.444444 52 68.567663 50.899672 70.371094 49.869141C71.673211 49.125074 72.18304 48.736581 72.693359 48.380859C72.843632 48.684523 73 49.04311 73 49.5C73 50.431402 72.148603 51.663697 70.544922 53.005859C68.941241 54.348022 66.715604 55.752514 64.458984 57.207031C62.202364 58.661548 59.913288 60.167489 58.132812 61.816406C56.352339 63.465323 55 65.321429 55 67.5C55 68.430556 55.45734 68.92466 55.962891 69.738281C56.468442 70.551903 57.131801 71.592745 57.859375 73.017578C59.001498 75.254236 60.294853 78.452346 61.277344 83.050781L58.884766 80.179688 A 0.50005 0.50005 0 0 0 58.490234 79.994141 A 0.50005 0.50005 0 0 0 58.115234 80.820312L61.675781 85.091797C61.792404 85.753715 61.907622 86.425617 62.009766 87.140625 A 1.0001694 1.0001694 0 1 0 63.990234 86.859375C62.975621 79.75708 61.185477 75.132757 59.640625 72.107422C58.868199 70.594755 58.156558 69.479347 57.662109 68.683594C57.16766 67.88784 57 67.319444 57 67.5C57 66.178571 57.897661 64.759911 59.492188 63.283203C61.086712 61.806495 63.297636 60.334655 65.541016 58.888672C67.784396 57.442689 70.058759 56.023478 71.830078 54.541016C73.601397 53.058553 75 51.466598 75 49.5C75 47.555556 73.707031 46.292969 73.707031 46.292969 A 1.0001 1.0001 0 0 0 72.412109 46.191406C72.412109 46.191406 71.075476 47.161391 69.378906 48.130859C67.682337 49.100328 65.555556 50 64.5 50C63.794333 50 63.542014 49.767256 63.318359 49.449219C63.094704 49.131181 63 48.639934 63 48.5C63 47.823111 62.98238 47.5438 63.648438 46.728516C64.226885 46.020468 65.448484 44.975308 67.578125 43.505859L71.318359 44.964844 A 0.50005 0.50005 0 0 0 71.988281 44.394531L71.179688 40.638672C71.643425 40.051551 72 39.345204 72 38.5C72 35.765503 70.355337 33.646558 70 33.205078L70 31C70 30.138889 69.878283 29.244581 69.4375 28.451172C68.996717 27.657762 68.083333 27 67 27 z M 29.5 28C26.468687 28 24 30.468687 24 33.5C24 36.531313 26.468687 39 29.5 39C32.531313 39 35 36.531313 35 33.5 A 0.50005 0.50005 0 1 0 34 33.5C34 35.990687 31.990687 38 29.5 38C27.009313 38 25 35.990687 25 33.5C25 31.009313 27.009313 29 29.5 29C29.793013 29 30.08409 29.047619 30.388672 29.117188 A 0.50081209 0.50081209 0 1 0 30.611328 28.140625C30.26791 28.06219 29.898987 28 29.5 28 z M 67 29C67.416667 29 67.503283 29.09224 67.6875 29.423828C67.871717 29.755419 68 30.361111 68 31L68 32.964844C67.029358 32.834023 66.59451 32.321833 66.322266 31.777344C66.006894 31.146601 66 30.5 66 30.5 A 0.50005 0.50005 0 0 0 65.966797 30.316406C66.042274 30.176897 66.190748 29.912987 66.425781 29.599609C66.581281 29.392276 66.757826 29.199989 66.890625 29.09375C67.023424 28.987511 67.083333 29 67 29 z M 33.46875 30.021484 A 0.50005 0.50005 0 0 0 33.097656 30.824219C33.306437 31.105377 33.485207 31.395664 33.619141 31.701172 A 0.50024099 0.50024099 0 1 0 34.535156 31.298828C34.36309 30.906336 34.143563 30.553358 33.902344 30.228516 A 0.50005 0.50005 0 0 0 33.46875 30.021484 z M 70.34375 41.505859L70.816406 43.697266L68.572266 42.820312C69.086861 42.479865 69.735212 42.045356 70.34375 41.505859 z M 50 42C49.48825 42 48.976438 42.195437 48.585938 42.585938C47.804938 43.366937 46 48 46 48C46 48 50.633063 46.195062 51.414062 45.414062C52.195063 44.633063 52.195062 43.366937 51.414062 42.585938C51.023562 42.195438 50.51175 42 50 42 z M 26.5 50C28.657407 50 31.096278 50.609942 32.947266 51.625C34.798253 52.640058 36 54.011905 36 55.5C36 57.162781 34.662781 58.5 33 58.5C31.92691 58.5 31.026929 57.913183 30.496094 57.064453 A 1.0001 1.0001 0 0 0 30.5 57C30.5 56.835243 30.489524 56.667782 30.46875 56.5C30.231436 54.458043 28.553033 52.407427 25.634766 51.207031C24.893413 50.895713 24.068368 50.637784 23.162109 50.451172C24.111307 50.223676 25.156885 50 26.5 50 z M 70 63C69.041667 63 68.260256 63.377378 67.751953 63.949219C67.24365 64.52106 67 65.263889 67 66C67 66.736111 67.24365 67.47894 67.751953 68.050781C68.260256 68.622622 69.041667 69 70 69C70.958333 69 71.739744 68.622622 72.248047 68.050781C72.75635 67.47894 73 66.736111 73 66C73 65.263889 72.75635 64.52106 72.248047 63.949219C71.739744 63.377378 70.958333 63 70 63 z M 70 64C70.708333 64 71.176923 64.247622 71.501953 64.613281C71.826983 64.97894 72 65.486111 72 66C72 66.513889 71.826983 67.02106 71.501953 67.386719C71.176923 67.752378 70.708333 68 70 68C69.291667 68 68.823077 67.752378 68.498047 67.386719C68.173017 67.02106 68 66.513889 68 66C68 65.486111 68.173017 64.97894 68.498047 64.613281C68.823077 64.247622 69.291667 64 70 64 z M 51.5 77.994141 A 0.50005 0.50005 0 0 0 51.035156 78.685547C52.052232 81.228235 53.08026 82.778532 53.871094 83.701172C54.266511 84.162492 54.602448 84.465539 54.847656 84.658203C55.092865 84.850867 55.277344 84.947266 55.277344 84.947266 A 0.50005 0.50005 0 0 0 55.900391 84.800781L56.900391 83.466797 A 0.50019565 0.50019565 0 1 0 56.099609 82.867188L55.396484 83.804688C55.205653 83.649568 54.95429 83.428442 54.628906 83.048828C53.91974 82.221468 52.947768 80.771765 51.964844 78.314453 A 0.50005 0.50005 0 0 0 51.5 77.994141 z" fill="#2D8AAF" />
</svg>